# xmcd
#
# Track frame offsets: 
#        150
#        18431
#        30607
#        47962
#        67521
#        79904
#        94649
#        108372
#        131060
#        150109
#        162892
#        178393
#
# Disc length: 2623 seconds
#
# Revision: 0
# Processed by: cddbd v1.5.2PL0 Copyright (c) Steve Scherf et al.
# Submitted via: ExactAudioCopy v0.95b4
#
DISCID=8c0a3d0c
DTITLE=Jawbone - Jawbone
DYEAR=1900
DGENRE=Acoustic
TTITLE0=Wild Horses
TTITLE1=Blue Train
TTITLE2=Friend of the Devil
TTITLE3=Coalminer
TTITLE4=Wild West
TTITLE5=Tom Ames' Prayer
TTITLE6=Viva Las Vegas
TTITLE7=Tear My Stillhouse own
TTITLE8=Wild Man from Borneo
TTITLE9=Midnight Highway
TTITLE10=The Road is a Lover
TTITLE11=Lullaby of the Leaves
EXTD=
EXTT0=
EXTT1=
EXTT2=
EXTT3=
EXTT4=
EXTT5=
EXTT6=
EXTT7=
EXTT8=
EXTT9=
EXTT10=
EXTT11=
PLAYORDER=
